<mxfile host="65bd71144e" modified="2021-02-26T10:32:35.715Z" agent="5.0 (Windows NT 10.0; Win64; x64) AppleWebKit/537.36 (KHTML, like Gecko) Code/1.53.2 Chrome/87.0.4280.141 Electron/11.2.1 Safari/537.36" version="14.2.4" etag="rOkDjCGGwrJdcgTPnOTv" type="embed">
    <diagram id="p92RhYUMqgJvNbxCmsQz" name="Page-1">
        <mxGraphModel dx="577" dy="473" grid="1" gridSize="10" guides="1" tooltips="1" connect="1" arrows="1" fold="1" page="1" pageScale="1" pageWidth="850" pageHeight="1100" math="0" shadow="0">
            <root>
                <mxCell id="0"/>
                <mxCell id="1" parent="0"/>
                <mxCell id="2" value="Use Case" style="swimlane;startSize=40;fillColor=#76608a;fontColor=#ffffff;strokeColor=#FFCCE6;" vertex="1" parent="1">
                    <mxGeometry x="200" y="40" width="440" height="900" as="geometry">
                        <mxRectangle x="200" y="40" width="90" height="40" as="alternateBounds"/>
                    </mxGeometry>
                </mxCell>
                <mxCell id="4" value="Login to the program" style="ellipse;whiteSpace=wrap;html=1;fillColor=#d80073;strokeColor=#A50040;fontColor=#ffffff;" vertex="1" parent="2">
                    <mxGeometry x="65" y="150" width="160" height="80" as="geometry"/>
                </mxCell>
                <mxCell id="5" value="Password verification" style="ellipse;whiteSpace=wrap;html=1;fillColor=#d80073;strokeColor=#A50040;fontColor=#ffffff;" vertex="1" parent="2">
                    <mxGeometry x="270" y="50" width="160" height="80" as="geometry"/>
                </mxCell>
                <mxCell id="7" value="" style="endArrow=block;dashed=1;endFill=0;endSize=12;html=1;entryX=0.269;entryY=0.938;entryDx=0;entryDy=0;exitX=1;exitY=0.5;exitDx=0;exitDy=0;entryPerimeter=0;" edge="1" parent="2" source="4" target="5">
                    <mxGeometry width="160" relative="1" as="geometry">
                        <mxPoint x="140" y="350" as="sourcePoint"/>
                        <mxPoint x="300" y="350" as="targetPoint"/>
                    </mxGeometry>
                </mxCell>
                <mxCell id="8" value="Register" style="ellipse;whiteSpace=wrap;html=1;fillColor=#d80073;strokeColor=#A50040;fontColor=#ffffff;" vertex="1" parent="2">
                    <mxGeometry x="75" y="280" width="160" height="80" as="geometry"/>
                </mxCell>
                <mxCell id="10" value="Email verification" style="ellipse;whiteSpace=wrap;html=1;fillColor=#d80073;strokeColor=#A50040;fontColor=#ffffff;" vertex="1" parent="2">
                    <mxGeometry x="270" y="210" width="160" height="80" as="geometry"/>
                </mxCell>
                <mxCell id="9" value="" style="endArrow=block;dashed=1;endFill=0;endSize=12;html=1;exitX=0.9;exitY=0.85;exitDx=0;exitDy=0;exitPerimeter=0;" edge="1" parent="2" source="8" target="10">
                    <mxGeometry width="160" relative="1" as="geometry">
                        <mxPoint x="-80" y="360" as="sourcePoint"/>
                        <mxPoint x="90" y="410" as="targetPoint"/>
                    </mxGeometry>
                </mxCell>
                <mxCell id="11" value="" style="endArrow=open;endFill=1;endSize=12;html=1;" edge="1" parent="2">
                    <mxGeometry width="160" relative="1" as="geometry">
                        <mxPoint x="-70" y="344.5" as="sourcePoint"/>
                        <mxPoint x="90" y="344.5" as="targetPoint"/>
                    </mxGeometry>
                </mxCell>
                <mxCell id="17" value="CRUD actions on store" style="ellipse;whiteSpace=wrap;html=1;fillColor=#d80073;strokeColor=#A50040;fontColor=#ffffff;" vertex="1" parent="2">
                    <mxGeometry x="80" y="420" width="160" height="80" as="geometry"/>
                </mxCell>
                <mxCell id="18" value="CRUD actions on product" style="ellipse;whiteSpace=wrap;html=1;fillColor=#d80073;strokeColor=#A50040;fontColor=#ffffff;" vertex="1" parent="2">
                    <mxGeometry x="80" y="550" width="160" height="80" as="geometry"/>
                </mxCell>
                <mxCell id="19" value="Logout" style="ellipse;whiteSpace=wrap;html=1;fillColor=#d80073;strokeColor=#A50040;fontColor=#ffffff;" vertex="1" parent="2">
                    <mxGeometry x="80" y="700" width="160" height="80" as="geometry"/>
                </mxCell>
                <mxCell id="21" value="" style="endArrow=open;endFill=1;endSize=12;html=1;entryX=0.031;entryY=0.663;entryDx=0;entryDy=0;entryPerimeter=0;" edge="1" parent="2">
                    <mxGeometry width="160" relative="1" as="geometry">
                        <mxPoint x="-30" y="479.9974394463669" as="sourcePoint"/>
                        <mxPoint x="94.96000000000004" y="569.88" as="targetPoint"/>
                    </mxGeometry>
                </mxCell>
                <mxCell id="22" value="" style="endArrow=open;endFill=1;endSize=12;html=1;entryX=0.031;entryY=0.663;entryDx=0;entryDy=0;entryPerimeter=0;" edge="1" parent="2">
                    <mxGeometry width="160" relative="1" as="geometry">
                        <mxPoint x="-60" y="500" as="sourcePoint"/>
                        <mxPoint x="94.96000000000004" y="719.8800000000001" as="targetPoint"/>
                    </mxGeometry>
                </mxCell>
                <mxCell id="23" value="Quatity on store" style="ellipse;whiteSpace=wrap;html=1;fillColor=#d80073;strokeColor=#A50040;fontColor=#ffffff;" vertex="1" parent="2">
                    <mxGeometry x="260" y="480" width="160" height="80" as="geometry"/>
                </mxCell>
                <mxCell id="25" value="" style="endArrow=block;dashed=1;endFill=0;endSize=12;html=1;exitX=1;exitY=0.5;exitDx=0;exitDy=0;" edge="1" parent="2" source="18">
                    <mxGeometry width="160" relative="1" as="geometry">
                        <mxPoint x="225" y="622.37" as="sourcePoint"/>
                        <mxPoint x="311.5457044502509" y="557.6258852204234" as="targetPoint"/>
                    </mxGeometry>
                </mxCell>
                <mxCell id="26" value="" style="endArrow=block;dashed=1;endFill=0;endSize=12;html=1;exitX=0.9;exitY=0.85;exitDx=0;exitDy=0;exitPerimeter=0;entryX=1.006;entryY=0.338;entryDx=0;entryDy=0;entryPerimeter=0;" edge="1" parent="2" target="17">
                    <mxGeometry width="160" relative="1" as="geometry">
                        <mxPoint x="310" y="480" as="sourcePoint"/>
                        <mxPoint x="396.5457044502509" y="415.25588522042335" as="targetPoint"/>
                    </mxGeometry>
                </mxCell>
                <mxCell id="3" value="User" style="shape=umlActor;verticalLabelPosition=bottom;verticalAlign=top;html=1;fillColor=#fad9d5;strokeColor=#ae4132;" vertex="1" parent="1">
                    <mxGeometry x="40" y="240" width="120" height="280" as="geometry"/>
                </mxCell>
                <mxCell id="6" value="" style="endArrow=open;endFill=1;endSize=12;html=1;entryX=0.038;entryY=0.675;entryDx=0;entryDy=0;entryPerimeter=0;" edge="1" parent="1" target="4">
                    <mxGeometry width="160" relative="1" as="geometry">
                        <mxPoint x="160" y="330" as="sourcePoint"/>
                        <mxPoint x="290" y="270" as="targetPoint"/>
                    </mxGeometry>
                </mxCell>
                <mxCell id="20" value="" style="endArrow=open;endFill=1;endSize=12;html=1;entryX=0.031;entryY=0.663;entryDx=0;entryDy=0;entryPerimeter=0;" edge="1" parent="1" source="3" target="17">
                    <mxGeometry width="160" relative="1" as="geometry">
                        <mxPoint x="140" y="394.5" as="sourcePoint"/>
                        <mxPoint x="300" y="394.5" as="targetPoint"/>
                    </mxGeometry>
                </mxCell>
                <mxCell id="30" value="&lt;font color=&quot;#333333&quot;&gt;Login interface&lt;/font&gt;" style="shape=umlLifeline;perimeter=lifelinePerimeter;whiteSpace=wrap;html=1;container=1;collapsible=0;recursiveResize=0;outlineConnect=0;fillColor=#fad9d5;strokeColor=#FF99CC;" vertex="1" parent="1">
                    <mxGeometry x="381" y="1206" width="119" height="880" as="geometry"/>
                </mxCell>
                <mxCell id="32" value="" style="html=1;verticalAlign=bottom;labelBackgroundColor=none;endArrow=block;endFill=1;" edge="1" parent="1">
                    <mxGeometry width="160" relative="1" as="geometry">
                        <mxPoint x="81" y="1246" as="sourcePoint"/>
                        <mxPoint x="81" y="2086.833333333333" as="targetPoint"/>
                    </mxGeometry>
                </mxCell>
                <mxCell id="33" value="User" style="shape=umlActor;verticalLabelPosition=bottom;verticalAlign=top;html=1;" vertex="1" parent="1">
                    <mxGeometry x="186" y="1206" width="30" height="60" as="geometry"/>
                </mxCell>
                <mxCell id="37" value="&lt;font color=&quot;#4d4d4d&quot;&gt;Data Base&lt;/font&gt;" style="shape=umlLifeline;perimeter=lifelinePerimeter;whiteSpace=wrap;html=1;container=1;collapsible=0;recursiveResize=0;outlineConnect=0;fillColor=#fad9d5;strokeColor=#FF99CC;" vertex="1" parent="1">
                    <mxGeometry x="622" y="1206" width="119" height="880" as="geometry"/>
                </mxCell>
                <mxCell id="48" value="" style="html=1;points=[];perimeter=orthogonalPerimeter;" vertex="1" parent="37">
                    <mxGeometry x="51" y="270" width="17" height="40" as="geometry"/>
                </mxCell>
                <mxCell id="49" value="&lt;font color=&quot;#ff3399&quot;&gt;Verify the existen&lt;br&gt;of the login&lt;br&gt;and the pass&amp;nbsp;&lt;/font&gt;" style="edgeStyle=orthogonalEdgeStyle;html=1;align=left;spacingLeft=2;endArrow=block;rounded=0;entryX=1;entryY=0;" edge="1" target="48" parent="37">
                    <mxGeometry x="0.1091" relative="1" as="geometry">
                        <mxPoint x="58" y="240" as="sourcePoint"/>
                        <Array as="points">
                            <mxPoint x="109" y="240"/>
                            <mxPoint x="109" y="270"/>
                            <mxPoint x="70" y="270"/>
                        </Array>
                        <mxPoint as="offset"/>
                    </mxGeometry>
                </mxCell>
                <mxCell id="38" value="" style="endArrow=none;dashed=1;html=1;" edge="1" parent="1">
                    <mxGeometry width="50" height="50" relative="1" as="geometry">
                        <mxPoint x="201" y="2086" as="sourcePoint"/>
                        <mxPoint x="201" y="1286" as="targetPoint"/>
                    </mxGeometry>
                </mxCell>
                <mxCell id="42" value="" style="endArrow=open;endFill=1;endSize=12;html=1;" edge="1" parent="1" target="30">
                    <mxGeometry width="160" relative="1" as="geometry">
                        <mxPoint x="201" y="1326" as="sourcePoint"/>
                        <mxPoint x="361" y="1326" as="targetPoint"/>
                    </mxGeometry>
                </mxCell>
                <mxCell id="43" value="Fill login inputs" style="text;align=center;fontStyle=1;verticalAlign=middle;spacingLeft=3;spacingRight=3;strokeColor=#3700CC;rotatable=0;points=[[0,0.5],[1,0.5]];portConstraint=eastwest;fillColor=#6a00ff;fontColor=#ffffff;" vertex="1" parent="1">
                    <mxGeometry x="261" y="1288" width="120" height="26" as="geometry"/>
                </mxCell>
                <mxCell id="44" value="" style="endArrow=open;endFill=1;endSize=12;html=1;" edge="1" parent="1">
                    <mxGeometry width="160" relative="1" as="geometry">
                        <mxPoint x="201.5" y="1404" as="sourcePoint"/>
                        <mxPoint x="440.5" y="1404" as="targetPoint"/>
                    </mxGeometry>
                </mxCell>
                <mxCell id="45" value="Click on login button" style="text;align=center;fontStyle=1;verticalAlign=middle;spacingLeft=3;spacingRight=3;strokeColor=#3700CC;rotatable=0;points=[[0,0.5],[1,0.5]];portConstraint=eastwest;fillColor=#6a00ff;fontColor=#ffffff;" vertex="1" parent="1">
                    <mxGeometry x="261.5" y="1366" width="120" height="26" as="geometry"/>
                </mxCell>
                <mxCell id="46" value="" style="endArrow=open;endFill=1;endSize=12;html=1;" edge="1" parent="1">
                    <mxGeometry width="160" relative="1" as="geometry">
                        <mxPoint x="442" y="1444" as="sourcePoint"/>
                        <mxPoint x="681" y="1444" as="targetPoint"/>
                    </mxGeometry>
                </mxCell>
                <mxCell id="47" value="Send inputs  values" style="text;align=center;fontStyle=1;verticalAlign=middle;spacingLeft=3;spacingRight=3;strokeColor=#3700CC;rotatable=0;points=[[0,0.5],[1,0.5]];portConstraint=eastwest;fillColor=#6a00ff;fontColor=#ffffff;" vertex="1" parent="1">
                    <mxGeometry x="502" y="1406" width="120" height="26" as="geometry"/>
                </mxCell>
                <mxCell id="50" value="Alt" style="shape=umlFrame;tabWidth=110;tabHeight=30;tabPosition=left;html=1;boundedLbl=1;labelInHeader=1;width=140;height=30;strokeColor=#CC0066;" vertex="1" parent="1">
                    <mxGeometry x="61" y="1526" width="700" height="500" as="geometry"/>
                </mxCell>
                <mxCell id="51" value="correct Info" style="text;fontColor=#FF33FF;" vertex="1" parent="50">
                    <mxGeometry width="100" height="20" relative="1" as="geometry">
                        <mxPoint x="20" y="40" as="offset"/>
                    </mxGeometry>
                </mxCell>
                <mxCell id="52" value="Incorrect info" style="line;strokeWidth=1;dashed=1;labelPosition=center;verticalLabelPosition=bottom;align=left;verticalAlign=top;spacingLeft=20;spacingTop=15;fontColor=#FF33FF;" vertex="1" parent="50">
                    <mxGeometry y="264" width="700" height="19.999999999999996" as="geometry"/>
                </mxCell>
                <mxCell id="56" value="" style="html=1;verticalAlign=bottom;labelBackgroundColor=none;endArrow=open;endFill=0;exitX=0.884;exitY=0.417;exitDx=0;exitDy=0;exitPerimeter=0;" edge="1" parent="50">
                    <mxGeometry x="-0.0049" y="-20" width="160" relative="1" as="geometry">
                        <mxPoint x="618.8000000000002" y="80.34000000000015" as="sourcePoint"/>
                        <mxPoint x="380" y="79.99999999999997" as="targetPoint"/>
                        <mxPoint as="offset"/>
                    </mxGeometry>
                </mxCell>
                <mxCell id="57" value="" style="html=1;points=[];perimeter=orthogonalPerimeter;" vertex="1" parent="50">
                    <mxGeometry x="370" y="160" width="20" height="70" as="geometry"/>
                </mxCell>
                <mxCell id="58" value="&lt;font color=&quot;#ff3399&quot;&gt;Redicet to the&lt;br&gt;Dashboard Page&lt;/font&gt;" style="edgeStyle=orthogonalEdgeStyle;html=1;align=left;spacingLeft=2;endArrow=block;rounded=0;entryX=1;entryY=0;" edge="1" target="57" parent="50">
                    <mxGeometry relative="1" as="geometry">
                        <mxPoint x="380" y="99.99999999999997" as="sourcePoint"/>
                        <Array as="points">
                            <mxPoint x="410" y="159.99999999999997"/>
                        </Array>
                    </mxGeometry>
                </mxCell>
                <mxCell id="61" value="" style="html=1;verticalAlign=bottom;labelBackgroundColor=none;endArrow=open;endFill=0;exitX=0.884;exitY=0.417;exitDx=0;exitDy=0;exitPerimeter=0;" edge="1" parent="50">
                    <mxGeometry x="-0.0049" y="-20" width="160" relative="1" as="geometry">
                        <mxPoint x="618.8000000000002" y="360.34000000000015" as="sourcePoint"/>
                        <mxPoint x="380" y="360" as="targetPoint"/>
                        <mxPoint as="offset"/>
                    </mxGeometry>
                </mxCell>
                <mxCell id="62" value="" style="html=1;verticalAlign=bottom;labelBackgroundColor=none;endArrow=open;endFill=0;exitX=0.884;exitY=0.417;exitDx=0;exitDy=0;exitPerimeter=0;" edge="1" parent="50">
                    <mxGeometry x="-0.0049" y="-20" width="160" relative="1" as="geometry">
                        <mxPoint x="378.8000000000002" y="440.34000000000015" as="sourcePoint"/>
                        <mxPoint x="140" y="440" as="targetPoint"/>
                        <mxPoint as="offset"/>
                    </mxGeometry>
                </mxCell>
                <mxCell id="65" value="Accept the user login" style="text;align=center;fontStyle=1;verticalAlign=middle;spacingLeft=3;spacingRight=3;strokeColor=#3700CC;rotatable=0;points=[[0,0.5],[1,0.5]];portConstraint=eastwest;fillColor=#6a00ff;fontColor=#ffffff;" vertex="1" parent="50">
                    <mxGeometry x="442" y="40" width="131" height="26" as="geometry"/>
                </mxCell>
                <mxCell id="66" value="Refuse the user login" style="text;align=center;fontStyle=1;verticalAlign=middle;spacingLeft=3;spacingRight=3;strokeColor=#3700CC;rotatable=0;points=[[0,0.5],[1,0.5]];portConstraint=eastwest;fillColor=#6a00ff;fontColor=#ffffff;" vertex="1" parent="50">
                    <mxGeometry x="438" y="320" width="131" height="26" as="geometry"/>
                </mxCell>
                <mxCell id="67" value="Inform the user" style="text;align=center;fontStyle=1;verticalAlign=middle;spacingLeft=3;spacingRight=3;strokeColor=#3700CC;rotatable=0;points=[[0,0.5],[1,0.5]];portConstraint=eastwest;fillColor=#6a00ff;fontColor=#ffffff;" vertex="1" parent="50">
                    <mxGeometry x="189" y="400" width="131" height="26" as="geometry"/>
                </mxCell>
                <mxCell id="63" value="Time" style="text;align=center;fontStyle=1;verticalAlign=middle;spacingLeft=3;spacingRight=3;strokeColor=none;rotatable=0;points=[[0,0.5],[1,0.5]];portConstraint=eastwest;" vertex="1" parent="1">
                    <mxGeometry x="20" y="1206" width="80" height="26" as="geometry"/>
                </mxCell>
                <mxCell id="64" value="Login Sequence Diagram" style="text;align=center;fontStyle=1;verticalAlign=middle;spacingLeft=3;spacingRight=3;strokeColor=#A50040;rotatable=0;points=[[0,0.5],[1,0.5]];portConstraint=eastwest;fillColor=#d80073;fontColor=#ffffff;" vertex="1" parent="1">
                    <mxGeometry x="369.75" y="1146" width="140.5" height="26" as="geometry"/>
                </mxCell>
                <mxCell id="68" value="&lt;font color=&quot;#333333&quot;&gt;Register interface&lt;/font&gt;" style="shape=umlLifeline;perimeter=lifelinePerimeter;whiteSpace=wrap;html=1;container=1;collapsible=0;recursiveResize=0;outlineConnect=0;fillColor=#fad9d5;strokeColor=#FF99CC;" vertex="1" parent="1">
                    <mxGeometry x="381" y="2310" width="119" height="880" as="geometry"/>
                </mxCell>
                <mxCell id="69" value="" style="html=1;verticalAlign=bottom;labelBackgroundColor=none;endArrow=block;endFill=1;" edge="1" parent="1">
                    <mxGeometry width="160" relative="1" as="geometry">
                        <mxPoint x="81" y="2350" as="sourcePoint"/>
                        <mxPoint x="81" y="3190.833333333333" as="targetPoint"/>
                    </mxGeometry>
                </mxCell>
                <mxCell id="70" value="User" style="shape=umlActor;verticalLabelPosition=bottom;verticalAlign=top;html=1;" vertex="1" parent="1">
                    <mxGeometry x="186" y="2310" width="30" height="60" as="geometry"/>
                </mxCell>
                <mxCell id="71" value="&lt;font color=&quot;#4d4d4d&quot;&gt;Data Base&lt;/font&gt;" style="shape=umlLifeline;perimeter=lifelinePerimeter;whiteSpace=wrap;html=1;container=1;collapsible=0;recursiveResize=0;outlineConnect=0;fillColor=#fad9d5;strokeColor=#FF99CC;" vertex="1" parent="1">
                    <mxGeometry x="622" y="2310" width="119" height="880" as="geometry"/>
                </mxCell>
                <mxCell id="72" value="" style="html=1;points=[];perimeter=orthogonalPerimeter;" vertex="1" parent="71">
                    <mxGeometry x="51" y="270" width="17" height="40" as="geometry"/>
                </mxCell>
                <mxCell id="73" value="&lt;span style=&quot;color: rgb(255 , 51 , 153)&quot;&gt;Verify the existen&lt;/span&gt;&lt;br style=&quot;color: rgb(255 , 51 , 153)&quot;&gt;&lt;span style=&quot;color: rgb(255 , 51 , 153)&quot;&gt;of the email&amp;nbsp;&lt;/span&gt;" style="edgeStyle=orthogonalEdgeStyle;html=1;align=left;spacingLeft=2;endArrow=block;rounded=0;entryX=1;entryY=0;" edge="1" parent="71" target="72">
                    <mxGeometry x="0.1091" relative="1" as="geometry">
                        <mxPoint x="58" y="240" as="sourcePoint"/>
                        <Array as="points">
                            <mxPoint x="109" y="240"/>
                            <mxPoint x="109" y="270"/>
                            <mxPoint x="70" y="270"/>
                        </Array>
                        <mxPoint as="offset"/>
                    </mxGeometry>
                </mxCell>
                <mxCell id="74" value="" style="endArrow=none;dashed=1;html=1;" edge="1" parent="1">
                    <mxGeometry width="50" height="50" relative="1" as="geometry">
                        <mxPoint x="201" y="3190" as="sourcePoint"/>
                        <mxPoint x="201" y="2390" as="targetPoint"/>
                    </mxGeometry>
                </mxCell>
                <mxCell id="75" value="" style="endArrow=open;endFill=1;endSize=12;html=1;" edge="1" parent="1" target="68">
                    <mxGeometry width="160" relative="1" as="geometry">
                        <mxPoint x="201" y="2430" as="sourcePoint"/>
                        <mxPoint x="361" y="2430" as="targetPoint"/>
                    </mxGeometry>
                </mxCell>
                <mxCell id="76" value="Fill Register inputs" style="text;align=center;fontStyle=1;verticalAlign=middle;spacingLeft=3;spacingRight=3;strokeColor=#3700CC;rotatable=0;points=[[0,0.5],[1,0.5]];portConstraint=eastwest;fillColor=#6a00ff;fontColor=#ffffff;" vertex="1" parent="1">
                    <mxGeometry x="261" y="2392" width="120" height="26" as="geometry"/>
                </mxCell>
                <mxCell id="77" value="" style="endArrow=open;endFill=1;endSize=12;html=1;" edge="1" parent="1">
                    <mxGeometry width="160" relative="1" as="geometry">
                        <mxPoint x="201.49999999999977" y="2508" as="sourcePoint"/>
                        <mxPoint x="440.5" y="2508" as="targetPoint"/>
                    </mxGeometry>
                </mxCell>
                <mxCell id="78" value="Click on singin button" style="text;align=center;fontStyle=1;verticalAlign=middle;spacingLeft=3;spacingRight=3;strokeColor=#3700CC;rotatable=0;points=[[0,0.5],[1,0.5]];portConstraint=eastwest;fillColor=#6a00ff;fontColor=#ffffff;" vertex="1" parent="1">
                    <mxGeometry x="251.75" y="2470" width="138.5" height="26" as="geometry"/>
                </mxCell>
                <mxCell id="79" value="" style="endArrow=open;endFill=1;endSize=12;html=1;" edge="1" parent="1">
                    <mxGeometry width="160" relative="1" as="geometry">
                        <mxPoint x="442" y="2547.9999999999995" as="sourcePoint"/>
                        <mxPoint x="681" y="2547.9999999999995" as="targetPoint"/>
                    </mxGeometry>
                </mxCell>
                <mxCell id="80" value="Send inputs  values" style="text;align=center;fontStyle=1;verticalAlign=middle;spacingLeft=3;spacingRight=3;strokeColor=#3700CC;rotatable=0;points=[[0,0.5],[1,0.5]];portConstraint=eastwest;fillColor=#6a00ff;fontColor=#ffffff;" vertex="1" parent="1">
                    <mxGeometry x="502" y="2510" width="120" height="26" as="geometry"/>
                </mxCell>
                <mxCell id="81" value="Alt" style="shape=umlFrame;tabWidth=110;tabHeight=30;tabPosition=left;html=1;boundedLbl=1;labelInHeader=1;width=140;height=30;strokeColor=#CC0066;" vertex="1" parent="1">
                    <mxGeometry x="61" y="2630" width="700" height="500" as="geometry"/>
                </mxCell>
                <mxCell id="82" value="correct Email" style="text;fontColor=#FF33FF;" vertex="1" parent="81">
                    <mxGeometry width="100" height="20" relative="1" as="geometry">
                        <mxPoint x="20" y="40" as="offset"/>
                    </mxGeometry>
                </mxCell>
                <mxCell id="83" value="Existin Email" style="line;strokeWidth=1;dashed=1;labelPosition=center;verticalLabelPosition=bottom;align=left;verticalAlign=top;spacingLeft=20;spacingTop=15;fontColor=#FF33FF;" vertex="1" parent="81">
                    <mxGeometry y="270" width="700" height="19.999999999999996" as="geometry"/>
                </mxCell>
                <mxCell id="84" value="" style="html=1;verticalAlign=bottom;labelBackgroundColor=none;endArrow=open;endFill=0;exitX=0.884;exitY=0.417;exitDx=0;exitDy=0;exitPerimeter=0;" edge="1" parent="81">
                    <mxGeometry x="-0.0049" y="-20" width="160" relative="1" as="geometry">
                        <mxPoint x="618.8000000000002" y="80.34000000000015" as="sourcePoint"/>
                        <mxPoint x="380" y="79.99999999999997" as="targetPoint"/>
                        <mxPoint as="offset"/>
                    </mxGeometry>
                </mxCell>
                <mxCell id="85" value="" style="html=1;points=[];perimeter=orthogonalPerimeter;" vertex="1" parent="81">
                    <mxGeometry x="370" y="160" width="20" height="70" as="geometry"/>
                </mxCell>
                <mxCell id="86" value="&lt;font color=&quot;#ff3399&quot;&gt;Redicet to the&lt;br&gt;login Page&lt;/font&gt;" style="edgeStyle=orthogonalEdgeStyle;html=1;align=left;spacingLeft=2;endArrow=block;rounded=0;entryX=1;entryY=0;" edge="1" parent="81" target="85">
                    <mxGeometry relative="1" as="geometry">
                        <mxPoint x="380" y="99.99999999999997" as="sourcePoint"/>
                        <Array as="points">
                            <mxPoint x="410" y="159.99999999999997"/>
                        </Array>
                    </mxGeometry>
                </mxCell>
                <mxCell id="87" value="" style="html=1;verticalAlign=bottom;labelBackgroundColor=none;endArrow=open;endFill=0;exitX=0.884;exitY=0.417;exitDx=0;exitDy=0;exitPerimeter=0;" edge="1" parent="81">
                    <mxGeometry x="-0.0049" y="-20" width="160" relative="1" as="geometry">
                        <mxPoint x="618.8000000000002" y="360.34000000000015" as="sourcePoint"/>
                        <mxPoint x="380" y="360" as="targetPoint"/>
                        <mxPoint as="offset"/>
                    </mxGeometry>
                </mxCell>
                <mxCell id="88" value="" style="html=1;verticalAlign=bottom;labelBackgroundColor=none;endArrow=open;endFill=0;exitX=0.884;exitY=0.417;exitDx=0;exitDy=0;exitPerimeter=0;" edge="1" parent="81">
                    <mxGeometry x="-0.0049" y="-20" width="160" relative="1" as="geometry">
                        <mxPoint x="378.8000000000002" y="440.34000000000015" as="sourcePoint"/>
                        <mxPoint x="140" y="440" as="targetPoint"/>
                        <mxPoint as="offset"/>
                    </mxGeometry>
                </mxCell>
                <mxCell id="89" value="Accept the user register" style="text;align=center;fontStyle=1;verticalAlign=middle;spacingLeft=3;spacingRight=3;strokeColor=#3700CC;rotatable=0;points=[[0,0.5],[1,0.5]];portConstraint=eastwest;fillColor=#6a00ff;fontColor=#ffffff;" vertex="1" parent="81">
                    <mxGeometry x="442" y="40" width="138" height="26" as="geometry"/>
                </mxCell>
                <mxCell id="90" value="Refuse the user login" style="text;align=center;fontStyle=1;verticalAlign=middle;spacingLeft=3;spacingRight=3;strokeColor=#3700CC;rotatable=0;points=[[0,0.5],[1,0.5]];portConstraint=eastwest;fillColor=#6a00ff;fontColor=#ffffff;" vertex="1" parent="81">
                    <mxGeometry x="438" y="320" width="131" height="26" as="geometry"/>
                </mxCell>
                <mxCell id="91" value="Inform the user" style="text;align=center;fontStyle=1;verticalAlign=middle;spacingLeft=3;spacingRight=3;strokeColor=#3700CC;rotatable=0;points=[[0,0.5],[1,0.5]];portConstraint=eastwest;fillColor=#6a00ff;fontColor=#ffffff;" vertex="1" parent="81">
                    <mxGeometry x="189" y="400" width="131" height="26" as="geometry"/>
                </mxCell>
                <mxCell id="100" value="" style="html=1;points=[];perimeter=orthogonalPerimeter;" vertex="1" parent="81">
                    <mxGeometry x="613" y="40" width="17" height="40" as="geometry"/>
                </mxCell>
                <mxCell id="101" value="&lt;font color=&quot;#ff3399&quot;&gt;Create User&lt;/font&gt;" style="edgeStyle=orthogonalEdgeStyle;html=1;align=left;spacingLeft=2;endArrow=block;rounded=0;entryX=1;entryY=0;" edge="1" parent="81" target="100">
                    <mxGeometry x="0.1091" relative="1" as="geometry">
                        <mxPoint x="620" y="10" as="sourcePoint"/>
                        <Array as="points">
                            <mxPoint x="639" y="10"/>
                            <mxPoint x="639" y="40"/>
                        </Array>
                        <mxPoint as="offset"/>
                    </mxGeometry>
                </mxCell>
                <mxCell id="92" value="Register Sequence Diagram" style="text;align=center;fontStyle=1;verticalAlign=middle;spacingLeft=3;spacingRight=3;strokeColor=#A50040;rotatable=0;points=[[0,0.5],[1,0.5]];portConstraint=eastwest;fillColor=#d80073;fontColor=#ffffff;" vertex="1" parent="1">
                    <mxGeometry x="359.5" y="2240" width="163.75" height="26" as="geometry"/>
                </mxCell>
                <mxCell id="102" value="&lt;font color=&quot;#333333&quot;&gt;Action interface&lt;/font&gt;" style="shape=umlLifeline;perimeter=lifelinePerimeter;whiteSpace=wrap;html=1;container=1;collapsible=0;recursiveResize=0;outlineConnect=0;fillColor=#fad9d5;strokeColor=#FF99CC;" vertex="1" parent="1">
                    <mxGeometry x="380" y="3430" width="119" height="730" as="geometry"/>
                </mxCell>
                <mxCell id="103" value="" style="html=1;verticalAlign=bottom;labelBackgroundColor=none;endArrow=block;endFill=1;" edge="1" parent="1">
                    <mxGeometry width="160" relative="1" as="geometry">
                        <mxPoint x="80" y="3470" as="sourcePoint"/>
                        <mxPoint x="80" y="4160" as="targetPoint"/>
                    </mxGeometry>
                </mxCell>
                <mxCell id="104" value="User" style="shape=umlActor;verticalLabelPosition=bottom;verticalAlign=top;html=1;" vertex="1" parent="1">
                    <mxGeometry x="185" y="3430" width="30" height="60" as="geometry"/>
                </mxCell>
                <mxCell id="105" value="&lt;font color=&quot;#4d4d4d&quot;&gt;Data Base&lt;/font&gt;" style="shape=umlLifeline;perimeter=lifelinePerimeter;whiteSpace=wrap;html=1;container=1;collapsible=0;recursiveResize=0;outlineConnect=0;fillColor=#fad9d5;strokeColor=#FF99CC;" vertex="1" parent="1">
                    <mxGeometry x="621" y="3430" width="119" height="730" as="geometry"/>
                </mxCell>
                <mxCell id="106" value="" style="html=1;points=[];perimeter=orthogonalPerimeter;" vertex="1" parent="105">
                    <mxGeometry x="51" y="270" width="17" height="40" as="geometry"/>
                </mxCell>
                <mxCell id="107" value="&lt;font color=&quot;#ff3399&quot;&gt;verify values of the&lt;br&gt;inputs in function&lt;br&gt;of the action&amp;nbsp;&lt;/font&gt;" style="edgeStyle=orthogonalEdgeStyle;html=1;align=left;spacingLeft=2;endArrow=block;rounded=0;entryX=1;entryY=0;" edge="1" parent="105" target="106">
                    <mxGeometry x="0.1091" relative="1" as="geometry">
                        <mxPoint x="58" y="240" as="sourcePoint"/>
                        <Array as="points">
                            <mxPoint x="109" y="240"/>
                            <mxPoint x="109" y="270"/>
                            <mxPoint x="70" y="270"/>
                        </Array>
                        <mxPoint as="offset"/>
                    </mxGeometry>
                </mxCell>
                <mxCell id="108" value="" style="endArrow=none;dashed=1;html=1;" edge="1" parent="1">
                    <mxGeometry width="50" height="50" relative="1" as="geometry">
                        <mxPoint x="200" y="4160" as="sourcePoint"/>
                        <mxPoint x="200" y="3510" as="targetPoint"/>
                    </mxGeometry>
                </mxCell>
                <mxCell id="109" value="" style="endArrow=open;endFill=1;endSize=12;html=1;" edge="1" parent="1" target="102">
                    <mxGeometry width="160" relative="1" as="geometry">
                        <mxPoint x="200" y="3550" as="sourcePoint"/>
                        <mxPoint x="360" y="3550" as="targetPoint"/>
                    </mxGeometry>
                </mxCell>
                <mxCell id="110" value="Fill Form inputs" style="text;align=center;fontStyle=1;verticalAlign=middle;spacingLeft=3;spacingRight=3;strokeColor=#3700CC;rotatable=0;points=[[0,0.5],[1,0.5]];portConstraint=eastwest;fillColor=#6a00ff;fontColor=#ffffff;" vertex="1" parent="1">
                    <mxGeometry x="260" y="3512" width="120" height="26" as="geometry"/>
                </mxCell>
                <mxCell id="111" value="" style="endArrow=open;endFill=1;endSize=12;html=1;" edge="1" parent="1">
                    <mxGeometry width="160" relative="1" as="geometry">
                        <mxPoint x="200.5" y="3628" as="sourcePoint"/>
                        <mxPoint x="439.5" y="3628" as="targetPoint"/>
                    </mxGeometry>
                </mxCell>
                <mxCell id="112" value="Click on action button" style="text;align=center;fontStyle=1;verticalAlign=middle;spacingLeft=3;spacingRight=3;strokeColor=#3700CC;rotatable=0;points=[[0,0.5],[1,0.5]];portConstraint=eastwest;fillColor=#6a00ff;fontColor=#ffffff;" vertex="1" parent="1">
                    <mxGeometry x="250.75" y="3590" width="138.5" height="26" as="geometry"/>
                </mxCell>
                <mxCell id="113" value="" style="endArrow=open;endFill=1;endSize=12;html=1;" edge="1" parent="1">
                    <mxGeometry width="160" relative="1" as="geometry">
                        <mxPoint x="441.00000000000045" y="3668" as="sourcePoint"/>
                        <mxPoint x="680" y="3668" as="targetPoint"/>
                    </mxGeometry>
                </mxCell>
                <mxCell id="114" value="Send inputs  values" style="text;align=center;fontStyle=1;verticalAlign=middle;spacingLeft=3;spacingRight=3;strokeColor=#3700CC;rotatable=0;points=[[0,0.5],[1,0.5]];portConstraint=eastwest;fillColor=#6a00ff;fontColor=#ffffff;" vertex="1" parent="1">
                    <mxGeometry x="501" y="3630" width="120" height="26" as="geometry"/>
                </mxCell>
                <mxCell id="115" value="Alt" style="shape=umlFrame;tabWidth=110;tabHeight=30;tabPosition=left;html=1;boundedLbl=1;labelInHeader=1;width=140;height=30;strokeColor=#CC0066;" vertex="1" parent="1">
                    <mxGeometry x="60" y="3750" width="700" height="370" as="geometry"/>
                </mxCell>
                <mxCell id="116" value="Correct" style="text;fontColor=#FF33FF;" vertex="1" parent="115">
                    <mxGeometry width="100" height="20" relative="1" as="geometry">
                        <mxPoint x="20" y="40" as="offset"/>
                    </mxGeometry>
                </mxCell>
                <mxCell id="117" value="Incorrect" style="line;strokeWidth=1;dashed=1;labelPosition=center;verticalLabelPosition=bottom;align=left;verticalAlign=top;spacingLeft=20;spacingTop=15;fontColor=#FF33FF;" vertex="1" parent="115">
                    <mxGeometry y="199.8" width="700" height="14.799999999999995" as="geometry"/>
                </mxCell>
                <mxCell id="128" value="CRUD Sequence Diagram" style="text;align=center;fontStyle=1;verticalAlign=middle;spacingLeft=3;spacingRight=3;strokeColor=#A50040;rotatable=0;points=[[0,0.5],[1,0.5]];portConstraint=eastwest;fillColor=#d80073;fontColor=#ffffff;" vertex="1" parent="1">
                    <mxGeometry x="268.75" y="3360" width="300.5" height="26" as="geometry"/>
                </mxCell>
                <mxCell id="139" value="Refuse the action" style="text;align=center;fontStyle=1;verticalAlign=middle;spacingLeft=3;spacingRight=3;strokeColor=#3700CC;rotatable=0;points=[[0,0.5],[1,0.5]];portConstraint=eastwest;fillColor=#6a00ff;fontColor=#ffffff;" vertex="1" parent="1">
                    <mxGeometry x="490" y="3958.82" width="152" height="26" as="geometry"/>
                </mxCell>
                <mxCell id="140" value="Inform the user" style="text;align=center;fontStyle=1;verticalAlign=middle;spacingLeft=3;spacingRight=3;strokeColor=#3700CC;rotatable=0;points=[[0,0.5],[1,0.5]];portConstraint=eastwest;fillColor=#6a00ff;fontColor=#ffffff;" vertex="1" parent="1">
                    <mxGeometry x="249" y="4038.82" width="131" height="26" as="geometry"/>
                </mxCell>
                <mxCell id="141" value="" style="html=1;verticalAlign=bottom;labelBackgroundColor=none;endArrow=open;endFill=0;exitX=0.884;exitY=0.417;exitDx=0;exitDy=0;exitPerimeter=0;" edge="1" parent="1">
                    <mxGeometry x="-0.0049" y="-20" width="160" relative="1" as="geometry">
                        <mxPoint x="438.79999999999995" y="4079.16" as="sourcePoint"/>
                        <mxPoint x="200" y="4078.8199999999997" as="targetPoint"/>
                        <mxPoint as="offset"/>
                    </mxGeometry>
                </mxCell>
                <mxCell id="142" value="" style="html=1;verticalAlign=bottom;labelBackgroundColor=none;endArrow=open;endFill=0;exitX=0.884;exitY=0.417;exitDx=0;exitDy=0;exitPerimeter=0;" edge="1" parent="1">
                    <mxGeometry x="-0.0049" y="-20" width="160" relative="1" as="geometry">
                        <mxPoint x="678.8000000000002" y="3999.16" as="sourcePoint"/>
                        <mxPoint x="440" y="3998.8199999999997" as="targetPoint"/>
                        <mxPoint as="offset"/>
                    </mxGeometry>
                </mxCell>
                <mxCell id="143" value="" style="html=1;verticalAlign=bottom;labelBackgroundColor=none;endArrow=open;endFill=0;exitX=0.884;exitY=0.417;exitDx=0;exitDy=0;exitPerimeter=0;" edge="1" parent="1">
                    <mxGeometry x="-0.0049" y="-20" width="160" relative="1" as="geometry">
                        <mxPoint x="433.9000000000001" y="3920.34" as="sourcePoint"/>
                        <mxPoint x="195.0999999999999" y="3920" as="targetPoint"/>
                        <mxPoint as="offset"/>
                    </mxGeometry>
                </mxCell>
                <mxCell id="144" value="Informe user" style="text;align=center;fontStyle=1;verticalAlign=middle;spacingLeft=3;spacingRight=3;strokeColor=#3700CC;rotatable=0;points=[[0,0.5],[1,0.5]];portConstraint=eastwest;fillColor=#6a00ff;fontColor=#ffffff;" vertex="1" parent="1">
                    <mxGeometry x="257.1" y="3880" width="138" height="26" as="geometry"/>
                </mxCell>
                <mxCell id="145" value="" style="html=1;verticalAlign=bottom;labelBackgroundColor=none;endArrow=open;endFill=0;exitX=0.884;exitY=0.417;exitDx=0;exitDy=0;exitPerimeter=0;" edge="1" parent="1">
                    <mxGeometry x="-0.0049" y="-20" width="160" relative="1" as="geometry">
                        <mxPoint x="678.8000000000002" y="3830.34" as="sourcePoint"/>
                        <mxPoint x="440" y="3830" as="targetPoint"/>
                        <mxPoint as="offset"/>
                    </mxGeometry>
                </mxCell>
                <mxCell id="146" value="Send result" style="text;align=center;fontStyle=1;verticalAlign=middle;spacingLeft=3;spacingRight=3;strokeColor=#3700CC;rotatable=0;points=[[0,0.5],[1,0.5]];portConstraint=eastwest;fillColor=#6a00ff;fontColor=#ffffff;" vertex="1" parent="1">
                    <mxGeometry x="502" y="3790" width="138" height="26" as="geometry"/>
                </mxCell>
                <mxCell id="147" value="" style="html=1;points=[];perimeter=orthogonalPerimeter;" vertex="1" parent="1">
                    <mxGeometry x="673" y="3790" width="17" height="40" as="geometry"/>
                </mxCell>
                <mxCell id="148" value="&lt;font color=&quot;#ff3399&quot;&gt;Make the&lt;br&gt;action&lt;/font&gt;" style="edgeStyle=orthogonalEdgeStyle;html=1;align=left;spacingLeft=2;endArrow=block;rounded=0;entryX=1;entryY=0;" edge="1" parent="1" target="147">
                    <mxGeometry x="0.1091" relative="1" as="geometry">
                        <mxPoint x="680" y="3760" as="sourcePoint"/>
                        <Array as="points">
                            <mxPoint x="699" y="3760"/>
                            <mxPoint x="699" y="3790"/>
                        </Array>
                        <mxPoint as="offset"/>
                    </mxGeometry>
                </mxCell>
                <mxCell id="187" value="Quantity" style="swimlane;fontStyle=1;align=center;verticalAlign=top;childLayout=stackLayout;horizontal=1;startSize=26;horizontalStack=0;resizeParent=1;resizeParentMax=0;resizeLast=0;collapsible=1;marginBottom=0;strokeColor=#FFCCE6;fillColor=#666666;fontColor=#FF33FF;" vertex="1" parent="1">
                    <mxGeometry x="280" y="5200" width="280" height="242" as="geometry"/>
                </mxCell>
                <mxCell id="188" value="- IdStore: int&#10;" style="text;strokeColor=none;fillColor=none;align=left;verticalAlign=top;spacingLeft=4;spacingRight=4;overflow=hidden;rotatable=0;points=[[0,0.5],[1,0.5]];portConstraint=eastwest;" vertex="1" parent="187">
                    <mxGeometry y="26" width="280" height="26" as="geometry"/>
                </mxCell>
                <mxCell id="236" value="- IdProduct: int&#10;" style="text;strokeColor=none;fillColor=none;align=left;verticalAlign=top;spacingLeft=4;spacingRight=4;overflow=hidden;rotatable=0;points=[[0,0.5],[1,0.5]];portConstraint=eastwest;" vertex="1" parent="187">
                    <mxGeometry y="52" width="280" height="26" as="geometry"/>
                </mxCell>
                <mxCell id="194" value="+ quantity: int" style="text;strokeColor=none;fillColor=none;align=left;verticalAlign=top;spacingLeft=4;spacingRight=4;overflow=hidden;rotatable=0;points=[[0,0.5],[1,0.5]];portConstraint=eastwest;fontColor=#FF33FF;" vertex="1" parent="187">
                    <mxGeometry y="78" width="280" height="26" as="geometry"/>
                </mxCell>
                <mxCell id="189" value="" style="line;strokeWidth=1;fillColor=none;align=left;verticalAlign=middle;spacingTop=-1;spacingLeft=3;spacingRight=3;rotatable=0;labelPosition=right;points=[];portConstraint=eastwest;" vertex="1" parent="187">
                    <mxGeometry y="104" width="280" height="8" as="geometry"/>
                </mxCell>
                <mxCell id="190" value="+ create(int,string,string): boolen" style="text;strokeColor=none;fillColor=none;align=left;verticalAlign=top;spacingLeft=4;spacingRight=4;overflow=hidden;rotatable=0;points=[[0,0.5],[1,0.5]];portConstraint=eastwest;" vertex="1" parent="187">
                    <mxGeometry y="112" width="280" height="26" as="geometry"/>
                </mxCell>
                <mxCell id="198" value="+ update(int): boolen" style="text;strokeColor=none;fillColor=none;align=left;verticalAlign=top;spacingLeft=4;spacingRight=4;overflow=hidden;rotatable=0;points=[[0,0.5],[1,0.5]];portConstraint=eastwest;" vertex="1" parent="187">
                    <mxGeometry y="138" width="280" height="26" as="geometry"/>
                </mxCell>
                <mxCell id="199" value="+ delete(int): boolen" style="text;strokeColor=none;fillColor=none;align=left;verticalAlign=top;spacingLeft=4;spacingRight=4;overflow=hidden;rotatable=0;points=[[0,0.5],[1,0.5]];portConstraint=eastwest;" vertex="1" parent="187">
                    <mxGeometry y="164" width="280" height="26" as="geometry"/>
                </mxCell>
                <mxCell id="211" value="+ read(int): boolen" style="text;strokeColor=none;fillColor=none;align=left;verticalAlign=top;spacingLeft=4;spacingRight=4;overflow=hidden;rotatable=0;points=[[0,0.5],[1,0.5]];portConstraint=eastwest;" vertex="1" parent="187">
                    <mxGeometry y="190" width="280" height="26" as="geometry"/>
                </mxCell>
                <mxCell id="212" value="+ list(): obejects" style="text;strokeColor=none;fillColor=none;align=left;verticalAlign=top;spacingLeft=4;spacingRight=4;overflow=hidden;rotatable=0;points=[[0,0.5],[1,0.5]];portConstraint=eastwest;" vertex="1" parent="187">
                    <mxGeometry y="216" width="280" height="26" as="geometry"/>
                </mxCell>
                <mxCell id="201" value="User" style="swimlane;fontStyle=1;align=center;verticalAlign=top;childLayout=stackLayout;horizontal=1;startSize=26;horizontalStack=0;resizeParent=1;resizeParentMax=0;resizeLast=0;collapsible=1;marginBottom=0;strokeColor=#FFCCE6;fillColor=#666666;fontColor=#FF33FF;" vertex="1" parent="1">
                    <mxGeometry x="284" y="4480" width="270" height="320" as="geometry"/>
                </mxCell>
                <mxCell id="202" value="- Id: int&#10;" style="text;strokeColor=none;fillColor=none;align=left;verticalAlign=top;spacingLeft=4;spacingRight=4;overflow=hidden;rotatable=0;points=[[0,0.5],[1,0.5]];portConstraint=eastwest;" vertex="1" parent="201">
                    <mxGeometry y="26" width="270" height="26" as="geometry"/>
                </mxCell>
                <mxCell id="203" value="+ FirstName: string" style="text;strokeColor=none;fillColor=none;align=left;verticalAlign=top;spacingLeft=4;spacingRight=4;overflow=hidden;rotatable=0;points=[[0,0.5],[1,0.5]];portConstraint=eastwest;fontColor=#FF33FF;" vertex="1" parent="201">
                    <mxGeometry y="52" width="270" height="26" as="geometry"/>
                </mxCell>
                <mxCell id="204" value="+ LastName: string" style="text;strokeColor=none;fillColor=none;align=left;verticalAlign=top;spacingLeft=4;spacingRight=4;overflow=hidden;rotatable=0;points=[[0,0.5],[1,0.5]];portConstraint=eastwest;fontColor=#FF33FF;" vertex="1" parent="201">
                    <mxGeometry y="78" width="270" height="26" as="geometry"/>
                </mxCell>
                <mxCell id="205" value="+ UserName: string" style="text;strokeColor=none;fillColor=none;align=left;verticalAlign=top;spacingLeft=4;spacingRight=4;overflow=hidden;rotatable=0;points=[[0,0.5],[1,0.5]];portConstraint=eastwest;fontColor=#FF33FF;" vertex="1" parent="201">
                    <mxGeometry y="104" width="270" height="26" as="geometry"/>
                </mxCell>
                <mxCell id="206" value="- Password: string" style="text;strokeColor=none;fillColor=none;align=left;verticalAlign=top;spacingLeft=4;spacingRight=4;overflow=hidden;rotatable=0;points=[[0,0.5],[1,0.5]];portConstraint=eastwest;fontColor=#FF33FF;" vertex="1" parent="201">
                    <mxGeometry y="130" width="270" height="26" as="geometry"/>
                </mxCell>
                <mxCell id="297" value="- Active: boolen" style="text;strokeColor=none;fillColor=none;align=left;verticalAlign=top;spacingLeft=4;spacingRight=4;overflow=hidden;rotatable=0;points=[[0,0.5],[1,0.5]];portConstraint=eastwest;fontColor=#FF33FF;" vertex="1" parent="201">
                    <mxGeometry y="156" width="270" height="26" as="geometry"/>
                </mxCell>
                <mxCell id="298" value="- ActvePassword: string" style="text;strokeColor=none;fillColor=none;align=left;verticalAlign=top;spacingLeft=4;spacingRight=4;overflow=hidden;rotatable=0;points=[[0,0.5],[1,0.5]];portConstraint=eastwest;fontColor=#FF33FF;" vertex="1" parent="201">
                    <mxGeometry y="182" width="270" height="26" as="geometry"/>
                </mxCell>
                <mxCell id="207" value="" style="line;strokeWidth=1;fillColor=none;align=left;verticalAlign=middle;spacingTop=-1;spacingLeft=3;spacingRight=3;rotatable=0;labelPosition=right;points=[];portConstraint=eastwest;" vertex="1" parent="201">
                    <mxGeometry y="208" width="270" height="8" as="geometry"/>
                </mxCell>
                <mxCell id="208" value="+ create(int,string,string,string,string): boolen" style="text;strokeColor=none;fillColor=none;align=left;verticalAlign=top;spacingLeft=4;spacingRight=4;overflow=hidden;rotatable=0;points=[[0,0.5],[1,0.5]];portConstraint=eastwest;" vertex="1" parent="201">
                    <mxGeometry y="216" width="270" height="26" as="geometry"/>
                </mxCell>
                <mxCell id="209" value="+ update(int): boolen" style="text;strokeColor=none;fillColor=none;align=left;verticalAlign=top;spacingLeft=4;spacingRight=4;overflow=hidden;rotatable=0;points=[[0,0.5],[1,0.5]];portConstraint=eastwest;" vertex="1" parent="201">
                    <mxGeometry y="242" width="270" height="26" as="geometry"/>
                </mxCell>
                <mxCell id="210" value="+ delete(int): boolen" style="text;strokeColor=none;fillColor=none;align=left;verticalAlign=top;spacingLeft=4;spacingRight=4;overflow=hidden;rotatable=0;points=[[0,0.5],[1,0.5]];portConstraint=eastwest;" vertex="1" parent="201">
                    <mxGeometry y="268" width="270" height="26" as="geometry"/>
                </mxCell>
                <mxCell id="213" value="+ read(int): boolen" style="text;strokeColor=none;fillColor=none;align=left;verticalAlign=top;spacingLeft=4;spacingRight=4;overflow=hidden;rotatable=0;points=[[0,0.5],[1,0.5]];portConstraint=eastwest;" vertex="1" parent="201">
                    <mxGeometry y="294" width="270" height="26" as="geometry"/>
                </mxCell>
                <mxCell id="214" value="Product" style="swimlane;fontStyle=1;align=center;verticalAlign=top;childLayout=stackLayout;horizontal=1;startSize=26;horizontalStack=0;resizeParent=1;resizeParentMax=0;resizeLast=0;collapsible=1;marginBottom=0;strokeColor=#FFCCE6;fillColor=#666666;fontColor=#FF33FF;" vertex="1" parent="1">
                    <mxGeometry x="520" y="4840" width="280" height="294" as="geometry"/>
                </mxCell>
                <mxCell id="215" value="- Id: int&#10;" style="text;strokeColor=none;fillColor=none;align=left;verticalAlign=top;spacingLeft=4;spacingRight=4;overflow=hidden;rotatable=0;points=[[0,0.5],[1,0.5]];portConstraint=eastwest;" vertex="1" parent="214">
                    <mxGeometry y="26" width="280" height="26" as="geometry"/>
                </mxCell>
                <mxCell id="216" value="+ Code: string" style="text;strokeColor=none;fillColor=none;align=left;verticalAlign=top;spacingLeft=4;spacingRight=4;overflow=hidden;rotatable=0;points=[[0,0.5],[1,0.5]];portConstraint=eastwest;fontColor=#FF33FF;" vertex="1" parent="214">
                    <mxGeometry y="52" width="280" height="26" as="geometry"/>
                </mxCell>
                <mxCell id="217" value="+ Name: string" style="text;strokeColor=none;fillColor=none;align=left;verticalAlign=top;spacingLeft=4;spacingRight=4;overflow=hidden;rotatable=0;points=[[0,0.5],[1,0.5]];portConstraint=eastwest;fontColor=#FF33FF;" vertex="1" parent="214">
                    <mxGeometry y="78" width="280" height="26" as="geometry"/>
                </mxCell>
                <mxCell id="224" value="+ PriceBuy: double" style="text;strokeColor=none;fillColor=none;align=left;verticalAlign=top;spacingLeft=4;spacingRight=4;overflow=hidden;rotatable=0;points=[[0,0.5],[1,0.5]];portConstraint=eastwest;fontColor=#FF33FF;" vertex="1" parent="214">
                    <mxGeometry y="104" width="280" height="26" as="geometry"/>
                </mxCell>
                <mxCell id="225" value="+ PriceSale: double" style="text;strokeColor=none;fillColor=none;align=left;verticalAlign=top;spacingLeft=4;spacingRight=4;overflow=hidden;rotatable=0;points=[[0,0.5],[1,0.5]];portConstraint=eastwest;fontColor=#FF33FF;" vertex="1" parent="214">
                    <mxGeometry y="130" width="280" height="26" as="geometry"/>
                </mxCell>
                <mxCell id="218" value="" style="line;strokeWidth=1;fillColor=none;align=left;verticalAlign=middle;spacingTop=-1;spacingLeft=3;spacingRight=3;rotatable=0;labelPosition=right;points=[];portConstraint=eastwest;" vertex="1" parent="214">
                    <mxGeometry y="156" width="280" height="8" as="geometry"/>
                </mxCell>
                <mxCell id="219" value="+ create(int,string,string,double,double): boolen" style="text;strokeColor=none;fillColor=none;align=left;verticalAlign=top;spacingLeft=4;spacingRight=4;overflow=hidden;rotatable=0;points=[[0,0.5],[1,0.5]];portConstraint=eastwest;" vertex="1" parent="214">
                    <mxGeometry y="164" width="280" height="26" as="geometry"/>
                </mxCell>
                <mxCell id="220" value="+ update(int): boolen" style="text;strokeColor=none;fillColor=none;align=left;verticalAlign=top;spacingLeft=4;spacingRight=4;overflow=hidden;rotatable=0;points=[[0,0.5],[1,0.5]];portConstraint=eastwest;" vertex="1" parent="214">
                    <mxGeometry y="190" width="280" height="26" as="geometry"/>
                </mxCell>
                <mxCell id="221" value="+ delete(int): boolen" style="text;strokeColor=none;fillColor=none;align=left;verticalAlign=top;spacingLeft=4;spacingRight=4;overflow=hidden;rotatable=0;points=[[0,0.5],[1,0.5]];portConstraint=eastwest;" vertex="1" parent="214">
                    <mxGeometry y="216" width="280" height="26" as="geometry"/>
                </mxCell>
                <mxCell id="222" value="+ read(int): boolen" style="text;strokeColor=none;fillColor=none;align=left;verticalAlign=top;spacingLeft=4;spacingRight=4;overflow=hidden;rotatable=0;points=[[0,0.5],[1,0.5]];portConstraint=eastwest;" vertex="1" parent="214">
                    <mxGeometry y="242" width="280" height="26" as="geometry"/>
                </mxCell>
                <mxCell id="223" value="+ list(): obejects" style="text;strokeColor=none;fillColor=none;align=left;verticalAlign=top;spacingLeft=4;spacingRight=4;overflow=hidden;rotatable=0;points=[[0,0.5],[1,0.5]];portConstraint=eastwest;" vertex="1" parent="214">
                    <mxGeometry y="268" width="280" height="26" as="geometry"/>
                </mxCell>
                <mxCell id="226" value="Store" style="swimlane;fontStyle=1;align=center;verticalAlign=top;childLayout=stackLayout;horizontal=1;startSize=26;horizontalStack=0;resizeParent=1;resizeParentMax=0;resizeLast=0;collapsible=1;marginBottom=0;strokeColor=#FFCCE6;fillColor=#666666;fontColor=#FF33FF;" vertex="1" parent="1">
                    <mxGeometry x="50" y="4850" width="280" height="242" as="geometry"/>
                </mxCell>
                <mxCell id="227" value="- Id: int&#10;" style="text;strokeColor=none;fillColor=none;align=left;verticalAlign=top;spacingLeft=4;spacingRight=4;overflow=hidden;rotatable=0;points=[[0,0.5],[1,0.5]];portConstraint=eastwest;" vertex="1" parent="226">
                    <mxGeometry y="26" width="280" height="26" as="geometry"/>
                </mxCell>
                <mxCell id="228" value="+ Name: string" style="text;strokeColor=none;fillColor=none;align=left;verticalAlign=top;spacingLeft=4;spacingRight=4;overflow=hidden;rotatable=0;points=[[0,0.5],[1,0.5]];portConstraint=eastwest;fontColor=#FF33FF;" vertex="1" parent="226">
                    <mxGeometry y="52" width="280" height="26" as="geometry"/>
                </mxCell>
                <mxCell id="229" value="+ Address: string" style="text;strokeColor=none;fillColor=none;align=left;verticalAlign=top;spacingLeft=4;spacingRight=4;overflow=hidden;rotatable=0;points=[[0,0.5],[1,0.5]];portConstraint=eastwest;fontColor=#FF33FF;" vertex="1" parent="226">
                    <mxGeometry y="78" width="280" height="26" as="geometry"/>
                </mxCell>
                <mxCell id="230" value="" style="line;strokeWidth=1;fillColor=none;align=left;verticalAlign=middle;spacingTop=-1;spacingLeft=3;spacingRight=3;rotatable=0;labelPosition=right;points=[];portConstraint=eastwest;" vertex="1" parent="226">
                    <mxGeometry y="104" width="280" height="8" as="geometry"/>
                </mxCell>
                <mxCell id="231" value="+ create(int,string,string): boolen" style="text;strokeColor=none;fillColor=none;align=left;verticalAlign=top;spacingLeft=4;spacingRight=4;overflow=hidden;rotatable=0;points=[[0,0.5],[1,0.5]];portConstraint=eastwest;" vertex="1" parent="226">
                    <mxGeometry y="112" width="280" height="26" as="geometry"/>
                </mxCell>
                <mxCell id="232" value="+ update(int): boolen" style="text;strokeColor=none;fillColor=none;align=left;verticalAlign=top;spacingLeft=4;spacingRight=4;overflow=hidden;rotatable=0;points=[[0,0.5],[1,0.5]];portConstraint=eastwest;" vertex="1" parent="226">
                    <mxGeometry y="138" width="280" height="26" as="geometry"/>
                </mxCell>
                <mxCell id="233" value="+ delete(int): boolen" style="text;strokeColor=none;fillColor=none;align=left;verticalAlign=top;spacingLeft=4;spacingRight=4;overflow=hidden;rotatable=0;points=[[0,0.5],[1,0.5]];portConstraint=eastwest;" vertex="1" parent="226">
                    <mxGeometry y="164" width="280" height="26" as="geometry"/>
                </mxCell>
                <mxCell id="234" value="+ read(int): boolen" style="text;strokeColor=none;fillColor=none;align=left;verticalAlign=top;spacingLeft=4;spacingRight=4;overflow=hidden;rotatable=0;points=[[0,0.5],[1,0.5]];portConstraint=eastwest;" vertex="1" parent="226">
                    <mxGeometry y="190" width="280" height="26" as="geometry"/>
                </mxCell>
                <mxCell id="235" value="+ list(): obejects" style="text;strokeColor=none;fillColor=none;align=left;verticalAlign=top;spacingLeft=4;spacingRight=4;overflow=hidden;rotatable=0;points=[[0,0.5],[1,0.5]];portConstraint=eastwest;" vertex="1" parent="226">
                    <mxGeometry y="216" width="280" height="26" as="geometry"/>
                </mxCell>
                <mxCell id="239" value="" style="endArrow=none;startArrow=none;endFill=0;startFill=0;endSize=8;html=1;verticalAlign=bottom;labelBackgroundColor=none;strokeWidth=3;fontColor=#FF33FF;entryX=0.554;entryY=0;entryDx=0;entryDy=0;entryPerimeter=0;" edge="1" parent="1" source="213" target="214">
                    <mxGeometry width="160" relative="1" as="geometry">
                        <mxPoint x="480" y="4940" as="sourcePoint"/>
                        <mxPoint x="640" y="4940" as="targetPoint"/>
                    </mxGeometry>
                </mxCell>
                <mxCell id="240" value="" style="endArrow=none;startArrow=none;endFill=0;startFill=0;endSize=8;html=1;verticalAlign=bottom;labelBackgroundColor=none;strokeWidth=3;fontColor=#FF33FF;entryX=0.42;entryY=0.985;entryDx=0;entryDy=0;entryPerimeter=0;exitX=0.5;exitY=0;exitDx=0;exitDy=0;" edge="1" parent="1" source="226" target="213">
                    <mxGeometry width="160" relative="1" as="geometry">
                        <mxPoint x="105.59009523809516" y="4748" as="sourcePoint"/>
                        <mxPoint x="329.9999999999999" y="4840" as="targetPoint"/>
                    </mxGeometry>
                </mxCell>
                <mxCell id="242" value="" style="endArrow=none;startArrow=diamondThin;endFill=0;startFill=1;html=1;verticalAlign=bottom;labelBackgroundColor=none;strokeWidth=1;startSize=8;endSize=8;fontColor=#FF33FF;entryX=0.996;entryY=-0.154;entryDx=0;entryDy=0;exitX=0;exitY=0.5;exitDx=0;exitDy=0;entryPerimeter=0;" edge="1" parent="1">
                    <mxGeometry width="160" relative="1" as="geometry">
                        <mxPoint x="520" y="4990" as="sourcePoint"/>
                        <mxPoint x="328.88" y="4990.996" as="targetPoint"/>
                    </mxGeometry>
                </mxCell>
                <mxCell id="243" value="" style="endArrow=none;startArrow=none;endFill=0;startFill=0;endSize=8;html=1;verticalAlign=bottom;labelBackgroundColor=none;strokeWidth=3;fontColor=#FF33FF;exitX=0.5;exitY=0;exitDx=0;exitDy=0;" edge="1" parent="1" source="187">
                    <mxGeometry width="160" relative="1" as="geometry">
                        <mxPoint x="480" y="5260" as="sourcePoint"/>
                        <mxPoint x="420" y="4990" as="targetPoint"/>
                    </mxGeometry>
                </mxCell>
                <UserObject label="1,1" placeholders="1" name="Variable" id="245">
                    <mxCell style="text;html=1;strokeColor=none;fillColor=none;align=center;verticalAlign=middle;whiteSpace=wrap;overflow=hidden;fontColor=#FF33FF;" vertex="1" parent="1">
                        <mxGeometry x="110" y="4820" width="80" height="20" as="geometry"/>
                    </mxCell>
                </UserObject>
                <UserObject label="1,N" placeholders="1" name="Variable" id="246">
                    <mxCell style="text;html=1;strokeColor=none;fillColor=none;align=center;verticalAlign=middle;whiteSpace=wrap;overflow=hidden;fontColor=#FF33FF;" vertex="1" parent="1">
                        <mxGeometry x="281.5" y="4748" width="80" height="20" as="geometry"/>
                    </mxCell>
                </UserObject>
                <UserObject label="1,N" placeholders="1" name="Variable" id="247">
                    <mxCell style="text;html=1;strokeColor=none;fillColor=none;align=center;verticalAlign=middle;whiteSpace=wrap;overflow=hidden;fontColor=#FF33FF;" vertex="1" parent="1">
                        <mxGeometry x="470" y="4748" width="80" height="20" as="geometry"/>
                    </mxCell>
                </UserObject>
                <UserObject label="1,1" placeholders="1" name="Variable" id="248">
                    <mxCell style="text;html=1;strokeColor=none;fillColor=none;align=center;verticalAlign=middle;whiteSpace=wrap;overflow=hidden;fontColor=#FF33FF;" vertex="1" parent="1">
                        <mxGeometry x="650" y="4810" width="80" height="20" as="geometry"/>
                    </mxCell>
                </UserObject>
                <UserObject label="1,N" placeholders="1" name="Variable" id="249">
                    <mxCell style="text;html=1;strokeColor=none;fillColor=none;align=center;verticalAlign=middle;whiteSpace=wrap;overflow=hidden;fontColor=#FF33FF;" vertex="1" parent="1">
                        <mxGeometry x="310.25" y="4961" width="80" height="20" as="geometry"/>
                    </mxCell>
                </UserObject>
                <UserObject label="1,N" placeholders="1" name="Variable" id="251">
                    <mxCell style="text;html=1;strokeColor=none;fillColor=none;align=center;verticalAlign=middle;whiteSpace=wrap;overflow=hidden;fontColor=#FF33FF;" vertex="1" parent="1">
                        <mxGeometry x="460" y="4961" width="80" height="20" as="geometry"/>
                    </mxCell>
                </UserObject>
                <mxCell id="253" value="" style="ellipse;html=1;shape=startState;fillColor=#000000;strokeColor=#ff0000;fontColor=#FF33FF;" vertex="1" parent="1">
                    <mxGeometry x="384.5" y="5600" width="30" height="30" as="geometry"/>
                </mxCell>
                <mxCell id="254" value="" style="edgeStyle=orthogonalEdgeStyle;html=1;verticalAlign=bottom;endArrow=open;endSize=8;strokeColor=#ff0000;fontColor=#FF33FF;" edge="1" source="253" parent="1">
                    <mxGeometry relative="1" as="geometry">
                        <mxPoint x="399.5" y="5690" as="targetPoint"/>
                    </mxGeometry>
                </mxCell>
                <mxCell id="255" value="Login" style="rounded=1;whiteSpace=wrap;html=1;arcSize=40;fontColor=#000000;fillColor=#ffffc0;strokeColor=#ff0000;" vertex="1" parent="1">
                    <mxGeometry x="340" y="5690" width="120" height="40" as="geometry"/>
                </mxCell>
                <mxCell id="256" value="" style="edgeStyle=orthogonalEdgeStyle;html=1;verticalAlign=bottom;endArrow=open;endSize=8;strokeColor=#ff0000;fontColor=#FF33FF;" edge="1" source="255" parent="1">
                    <mxGeometry relative="1" as="geometry">
                        <mxPoint x="400" y="5790" as="targetPoint"/>
                    </mxGeometry>
                </mxCell>
                <mxCell id="257" value="Correct&lt;br&gt;User Info" style="rhombus;whiteSpace=wrap;html=1;fillColor=#ffffc0;strokeColor=#ff0000;fontColor=#FF33FF;" vertex="1" parent="1">
                    <mxGeometry x="359.5" y="5790" width="80" height="50" as="geometry"/>
                </mxCell>
                <mxCell id="258" value="no" style="edgeStyle=orthogonalEdgeStyle;html=1;align=left;verticalAlign=bottom;endArrow=open;endSize=8;strokeColor=#ff0000;fontColor=#FF33FF;" edge="1" source="257" parent="1">
                    <mxGeometry x="-1" relative="1" as="geometry">
                        <mxPoint x="460" y="5710" as="targetPoint"/>
                        <Array as="points">
                            <mxPoint x="480" y="5815"/>
                            <mxPoint x="480" y="5710"/>
                        </Array>
                    </mxGeometry>
                </mxCell>
                <mxCell id="259" value="yes" style="edgeStyle=orthogonalEdgeStyle;html=1;align=left;verticalAlign=top;endArrow=open;endSize=8;strokeColor=#ff0000;fontColor=#FF33FF;" edge="1" source="257" parent="1">
                    <mxGeometry x="-1" relative="1" as="geometry">
                        <mxPoint x="399.5" y="5890" as="targetPoint"/>
                    </mxGeometry>
                </mxCell>
                <mxCell id="260" value="" style="shape=line;html=1;strokeWidth=6;strokeColor=#ff0000;fillColor=#666666;fontColor=#FF33FF;" vertex="1" parent="1">
                    <mxGeometry x="240" y="5890" width="320" height="10" as="geometry"/>
                </mxCell>
                <mxCell id="261" value="" style="edgeStyle=orthogonalEdgeStyle;html=1;verticalAlign=bottom;endArrow=open;endSize=8;strokeColor=#ff0000;fontColor=#FF33FF;exitX=0.611;exitY=0.957;exitDx=0;exitDy=0;exitPerimeter=0;" edge="1" source="260" parent="1">
                    <mxGeometry relative="1" as="geometry">
                        <mxPoint x="399" y="5980" as="targetPoint"/>
                    </mxGeometry>
                </mxCell>
                <mxCell id="262" value="Create" style="rounded=1;whiteSpace=wrap;html=1;arcSize=40;fontColor=#000000;fillColor=#ffffc0;strokeColor=#ff0000;" vertex="1" parent="1">
                    <mxGeometry x="340" y="5980" width="120" height="40" as="geometry"/>
                </mxCell>
                <mxCell id="263" value="" style="edgeStyle=orthogonalEdgeStyle;html=1;verticalAlign=bottom;endArrow=open;endSize=8;strokeColor=#ff0000;fontColor=#FF33FF;" edge="1" source="262" parent="1">
                    <mxGeometry relative="1" as="geometry">
                        <mxPoint x="400" y="6080" as="targetPoint"/>
                    </mxGeometry>
                </mxCell>
                <mxCell id="264" value="Check if Object exist" style="rounded=1;whiteSpace=wrap;html=1;arcSize=40;fontColor=#000000;fillColor=#ffffc0;strokeColor=#ff0000;" vertex="1" parent="1">
                    <mxGeometry x="339" y="6080" width="120" height="40" as="geometry"/>
                </mxCell>
                <mxCell id="265" value="" style="edgeStyle=orthogonalEdgeStyle;html=1;verticalAlign=bottom;endArrow=open;endSize=8;strokeColor=#ff0000;fontColor=#FF33FF;" edge="1" source="264" parent="1">
                    <mxGeometry relative="1" as="geometry">
                        <mxPoint x="399" y="6180" as="targetPoint"/>
                    </mxGeometry>
                </mxCell>
                <mxCell id="266" value="Object&lt;br&gt;doesn't&lt;br&gt;exist" style="rhombus;whiteSpace=wrap;html=1;fillColor=#ffffc0;strokeColor=#ff0000;fontColor=#FF33FF;" vertex="1" parent="1">
                    <mxGeometry x="360" y="6180" width="80" height="90" as="geometry"/>
                </mxCell>
                <mxCell id="267" value="no" style="edgeStyle=orthogonalEdgeStyle;html=1;align=left;verticalAlign=bottom;endArrow=open;endSize=8;strokeColor=#ff0000;fontColor=#FF33FF;entryX=1;entryY=0.5;entryDx=0;entryDy=0;" edge="1" parent="1" target="262">
                    <mxGeometry x="-1" relative="1" as="geometry">
                        <mxPoint x="459" y="6100" as="targetPoint"/>
                        <mxPoint x="442" y="6225" as="sourcePoint"/>
                        <Array as="points">
                            <mxPoint x="480" y="6225"/>
                            <mxPoint x="480" y="6000"/>
                        </Array>
                    </mxGeometry>
                </mxCell>
                <mxCell id="268" value="yes" style="edgeStyle=orthogonalEdgeStyle;html=1;align=left;verticalAlign=top;endArrow=open;endSize=8;strokeColor=#ff0000;fontColor=#FF33FF;" edge="1" source="266" parent="1">
                    <mxGeometry x="-1" relative="1" as="geometry">
                        <mxPoint x="400" y="6320" as="targetPoint"/>
                    </mxGeometry>
                </mxCell>
                <mxCell id="269" value="Success" style="rounded=1;whiteSpace=wrap;html=1;arcSize=40;fontColor=#000000;fillColor=#ffffc0;strokeColor=#ff0000;" vertex="1" parent="1">
                    <mxGeometry x="339" y="6320" width="120" height="40" as="geometry"/>
                </mxCell>
                <mxCell id="278" value="Update" style="rounded=1;whiteSpace=wrap;html=1;arcSize=40;fontColor=#000000;fillColor=#ffffc0;strokeColor=#ff0000;" vertex="1" parent="1">
                    <mxGeometry x="181" y="5980" width="120" height="40" as="geometry"/>
                </mxCell>
                <mxCell id="279" value="" style="edgeStyle=orthogonalEdgeStyle;html=1;verticalAlign=bottom;endArrow=open;endSize=8;strokeColor=#ff0000;fontColor=#FF33FF;" edge="1" parent="1" source="278">
                    <mxGeometry relative="1" as="geometry">
                        <mxPoint x="241" y="6080" as="targetPoint"/>
                    </mxGeometry>
                </mxCell>
                <mxCell id="280" value="Check inputs values" style="rounded=1;whiteSpace=wrap;html=1;arcSize=40;fontColor=#000000;fillColor=#ffffc0;strokeColor=#ff0000;" vertex="1" parent="1">
                    <mxGeometry x="180" y="6080" width="120" height="40" as="geometry"/>
                </mxCell>
                <mxCell id="281" value="" style="edgeStyle=orthogonalEdgeStyle;html=1;verticalAlign=bottom;endArrow=open;endSize=8;strokeColor=#ff0000;fontColor=#FF33FF;" edge="1" parent="1" source="280">
                    <mxGeometry relative="1" as="geometry">
                        <mxPoint x="240" y="6180" as="targetPoint"/>
                    </mxGeometry>
                </mxCell>
                <mxCell id="282" value="Values&lt;br&gt;incorrect" style="rhombus;whiteSpace=wrap;html=1;fillColor=#ffffc0;strokeColor=#ff0000;fontColor=#FF33FF;" vertex="1" parent="1">
                    <mxGeometry x="201" y="6180" width="80" height="90" as="geometry"/>
                </mxCell>
                <mxCell id="283" value="no" style="edgeStyle=orthogonalEdgeStyle;html=1;align=left;verticalAlign=bottom;endArrow=open;endSize=8;strokeColor=#ff0000;fontColor=#FF33FF;entryX=1;entryY=0.5;entryDx=0;entryDy=0;" edge="1" parent="1" target="278">
                    <mxGeometry x="-1" relative="1" as="geometry">
                        <mxPoint x="300" y="6100" as="targetPoint"/>
                        <mxPoint x="283" y="6225" as="sourcePoint"/>
                        <Array as="points">
                            <mxPoint x="321" y="6225"/>
                            <mxPoint x="321" y="6000"/>
                        </Array>
                    </mxGeometry>
                </mxCell>
                <mxCell id="284" value="yes" style="edgeStyle=orthogonalEdgeStyle;html=1;align=left;verticalAlign=top;endArrow=open;endSize=8;strokeColor=#ff0000;fontColor=#FF33FF;" edge="1" parent="1" source="282">
                    <mxGeometry x="-1" relative="1" as="geometry">
                        <mxPoint x="241" y="6320" as="targetPoint"/>
                    </mxGeometry>
                </mxCell>
                <mxCell id="285" value="Success" style="rounded=1;whiteSpace=wrap;html=1;arcSize=40;fontColor=#000000;fillColor=#ffffc0;strokeColor=#ff0000;" vertex="1" parent="1">
                    <mxGeometry x="180" y="6320" width="120" height="40" as="geometry"/>
                </mxCell>
                <mxCell id="286" value="" style="edgeStyle=orthogonalEdgeStyle;html=1;verticalAlign=bottom;endArrow=open;endSize=8;strokeColor=#ff0000;fontColor=#FF33FF;" edge="1" parent="1">
                    <mxGeometry relative="1" as="geometry">
                        <mxPoint x="240.71" y="5980" as="targetPoint"/>
                        <mxPoint x="240.71" y="5900" as="sourcePoint"/>
                    </mxGeometry>
                </mxCell>
                <mxCell id="287" value="Delete" style="rounded=1;whiteSpace=wrap;html=1;arcSize=40;fontColor=#000000;fillColor=#ffffc0;strokeColor=#ff0000;" vertex="1" parent="1">
                    <mxGeometry x="499" y="5980" width="120" height="40" as="geometry"/>
                </mxCell>
                <mxCell id="288" value="" style="edgeStyle=orthogonalEdgeStyle;html=1;verticalAlign=bottom;endArrow=open;endSize=8;strokeColor=#ff0000;fontColor=#FF33FF;" edge="1" parent="1" source="287">
                    <mxGeometry relative="1" as="geometry">
                        <mxPoint x="559" y="6080" as="targetPoint"/>
                    </mxGeometry>
                </mxCell>
                <mxCell id="289" value="" style="edgeStyle=orthogonalEdgeStyle;html=1;verticalAlign=bottom;endArrow=open;endSize=8;strokeColor=#ff0000;fontColor=#FF33FF;" edge="1" parent="1">
                    <mxGeometry relative="1" as="geometry">
                        <mxPoint x="558" y="6180" as="targetPoint"/>
                        <mxPoint x="558" y="6120" as="sourcePoint"/>
                    </mxGeometry>
                </mxCell>
                <mxCell id="290" value="Values&lt;br&gt;incorrect" style="rhombus;whiteSpace=wrap;html=1;fillColor=#ffffc0;strokeColor=#ff0000;fontColor=#FF33FF;" vertex="1" parent="1">
                    <mxGeometry x="523" y="6180" width="80" height="90" as="geometry"/>
                </mxCell>
                <mxCell id="291" value="no" style="edgeStyle=orthogonalEdgeStyle;html=1;align=left;verticalAlign=bottom;endArrow=open;endSize=8;strokeColor=#ff0000;fontColor=#FF33FF;entryX=1;entryY=0.5;entryDx=0;entryDy=0;" edge="1" parent="1" target="287">
                    <mxGeometry x="-1" relative="1" as="geometry">
                        <mxPoint x="618" y="6100" as="targetPoint"/>
                        <mxPoint x="601" y="6225" as="sourcePoint"/>
                        <Array as="points">
                            <mxPoint x="639" y="6225"/>
                            <mxPoint x="639" y="6000"/>
                        </Array>
                    </mxGeometry>
                </mxCell>
                <mxCell id="292" value="yes" style="edgeStyle=orthogonalEdgeStyle;html=1;align=left;verticalAlign=top;endArrow=open;endSize=8;strokeColor=#ff0000;fontColor=#FF33FF;" edge="1" parent="1">
                    <mxGeometry x="-1" relative="1" as="geometry">
                        <mxPoint x="559" y="6320" as="targetPoint"/>
                        <mxPoint x="559" y="6270" as="sourcePoint"/>
                    </mxGeometry>
                </mxCell>
                <mxCell id="293" value="Success" style="rounded=1;whiteSpace=wrap;html=1;arcSize=40;fontColor=#000000;fillColor=#ffffc0;strokeColor=#ff0000;" vertex="1" parent="1">
                    <mxGeometry x="502" y="6320" width="120" height="40" as="geometry"/>
                </mxCell>
                <mxCell id="294" value="" style="edgeStyle=orthogonalEdgeStyle;html=1;verticalAlign=bottom;endArrow=open;endSize=8;strokeColor=#ff0000;fontColor=#FF33FF;" edge="1" parent="1">
                    <mxGeometry relative="1" as="geometry">
                        <mxPoint x="558.71" y="5980" as="targetPoint"/>
                        <mxPoint x="558.71" y="5900" as="sourcePoint"/>
                    </mxGeometry>
                </mxCell>
                <mxCell id="295" value="Find the object" style="rounded=1;whiteSpace=wrap;html=1;arcSize=40;fontColor=#000000;fillColor=#ffffc0;strokeColor=#ff0000;" vertex="1" parent="1">
                    <mxGeometry x="503" y="6080" width="120" height="40" as="geometry"/>
                </mxCell>
            </root>
        </mxGraphModel>
    </diagram>
</mxfile>